<svg viewBox="0 0 120 119" fill="none" xmlns="http://www.w3.org/2000/svg"><path d="M22.133 101.154 13.71 7.438h92.58l-8.434 93.701-37.912 10.423-37.812-10.408z" fill="#1572B6"/><path d="m60 103.597 30.638-8.423 7.207-80.072H60v88.495z" fill="#33A9DC"/><path d="M60 49.054h15.338l1.057-11.77H60V25.79h29.063l-.278 3.082-2.846 31.677H60V49.054z" fill="#fff"/><path d="m60.071 78.904-.052.015-12.908-3.458-.825-9.167H34.65l1.624 18.047 23.741 6.538.056-.015v-11.96z" fill="#EBEBEB"/><path d="m74.351 60.062-1.395 15.391-12.926 3.459v11.96l23.76-6.53.176-1.942 2.014-22.339H74.351z" fill="#fff"/><path d="M60.041 25.79v11.494H32.044L31.81 34.7l-.529-5.828-.277-3.082h29.036zM60 49.053v11.495H47.254l-.233-2.585-.525-5.827-.277-3.083H60z" fill="#EBEBEB"/></svg>