<svg viewBox="0 0 105 105" fill="none" xmlns="http://www.w3.org/2000/svg"><g clip-path="url(#a)"><path d="M103.02 47.822 57.176 1.98a6.762 6.762 0 0 0-9.563 0l-9.52 9.52L50.17 23.576a8.027 8.027 0 0 1 8.261 1.925 8.04 8.04 0 0 1 1.908 8.312l11.639 11.639c2.815-.97 6.064-.343 8.313 1.91a8.043 8.043 0 0 1 0 11.378 8.046 8.046 0 0 1-13.133-8.751L56.305 39.135l-.002 28.562a8.13 8.13 0 0 1 2.128 1.522 8.047 8.047 0 0 1 0 11.38c-3.144 3.143-8.238 3.143-11.377 0a8.046 8.046 0 0 1 2.633-13.136V38.635a7.948 7.948 0 0 1-2.633-1.756c-2.382-2.378-2.954-5.872-1.734-8.796L33.415 16.178 1.981 47.61a6.764 6.764 0 0 0 0 9.566l45.845 45.842a6.764 6.764 0 0 0 9.563 0l45.63-45.63a6.766 6.766 0 0 0 0-9.566" fill="#DE4C36"/></g><defs><clipPath id="a"><path fill="#fff" d="M0 0h105v105H0z"/></clipPath></defs></svg>