<svg viewBox="0 0 120 120" fill="none" xmlns="http://www.w3.org/2000/svg"><path d="M22.133 102.004 13.706 7.5h92.588l-8.438 94.489L59.944 112.5l-37.812-10.496z" fill="#E44F26"/><path d="m60 104.467 30.638-8.493 7.207-80.745H60v89.238z" fill="#F1662A"/><path d="M60 50.276H44.663l-1.058-11.869H60v-11.59H30.937l.278 3.112 2.846 31.939H60V50.276zm0 30.101-.053.016-12.907-3.484-.825-9.244H34.579l1.623 18.195 23.745 6.593.053-.016v-12.06z" fill="#EBEBEB"/><path d="M59.959 50.276v11.591H74.23L72.89 76.901l-12.93 3.488v12.06l23.763-6.589.173-1.957 2.723-30.514.285-3.113H59.959zm0-23.46v11.591h27.997l.233-2.602.529-5.876.277-3.113H59.959z" fill="#fff"/></svg>