<svg viewBox="0 0 120 120" fill="none" xmlns="http://www.w3.org/2000/svg"><path d="M7.5 7.5h105v105H7.5V7.5z" fill="#F5DE19"/><path d="M78.034 89.531a10.747 10.747 0 0 0 9.75 6c4.087 0 6.701-2.044 6.701-4.875 0-3.375-2.685-4.582-7.185-6.551l-2.468-1.058c-7.124-3.033-11.85-6.832-11.85-14.864 0-7.4 5.626-13.036 14.45-13.036a14.583 14.583 0 0 1 14.032 7.902L93.75 67.98a6.709 6.709 0 0 0-6.334-4.23 4.295 4.295 0 0 0-4.721 4.23c0 2.959 1.834 4.159 6.068 6l2.467 1.057c8.385 3.597 13.125 7.26 13.125 15.5 0 8.883-6.979 13.75-16.35 13.75a18.958 18.958 0 0 1-17.981-10.09l8.01-4.666zm-34.857.855c1.55 2.749 2.96 5.074 6.35 5.074 3.24 0 5.287-1.267 5.287-6.199V55.71h9.866v33.682c0 10.216-6 14.865-14.734 14.865a15.319 15.319 0 0 1-14.801-9l8.032-4.87z" fill="#000"/></svg>