<svg viewBox="0 0 105 100" fill="none" xmlns="http://www.w3.org/2000/svg"><path d="M72.697 69.563c3.872-.401 6.81-3.739 6.675-7.745-.133-4.005-3.47-7.21-7.476-7.21h-.267c-4.14.134-7.343 3.606-7.21 7.745.134 2.002.935 3.738 2.136 4.94-4.539 8.945-11.482 15.488-21.896 20.962-7.076 3.738-14.419 5.074-21.762 4.14-6.008-.802-10.681-3.472-13.619-7.879-4.272-6.542-4.672-13.619-1.067-20.695 2.537-5.073 6.541-8.812 9.078-10.681-.534-1.736-1.335-4.673-1.735-6.81C-3.806 60.35-1.803 79.31 4.072 88.256c4.405 6.676 13.35 10.815 23.23 10.815 2.67 0 5.341-.267 8.011-.934 17.09-3.338 30.041-13.486 37.384-28.573zm23.498-16.556c-10.147-11.884-25.1-18.426-42.19-18.426H51.87c-1.201-2.403-3.738-4.006-6.542-4.006h-.267c-4.139.134-7.343 3.605-7.21 7.745.134 4.005 3.472 7.21 7.477 7.21h.267c2.937-.134 5.474-2.003 6.542-4.54h2.403c10.147 0 19.76 2.937 28.439 8.678 6.675 4.407 11.482 10.148 14.152 17.09 2.27 5.608 2.136 11.083-.267 15.756-3.738 7.076-10.013 10.948-18.291 10.948-5.34 0-10.414-1.602-13.085-2.804-1.468 1.335-4.139 3.471-6.008 4.807 5.742 2.67 11.616 4.14 17.224 4.14 12.817 0 22.296-7.078 25.901-14.154 3.872-7.744 3.605-21.096-6.409-32.444zM28.371 71.832c.134 4.006 3.471 7.21 7.476 7.21h.268c4.139-.133 7.343-3.605 7.21-7.744-.134-4.006-3.472-7.21-7.478-7.21h-.266c-.268 0-.668 0-.935.133-5.474-9.079-7.744-18.959-6.942-29.64.533-8.011 3.204-14.954 7.877-20.696 3.871-4.94 11.348-7.343 16.422-7.476 14.152-.268 20.16 17.357 20.56 24.433 1.736.4 4.674 1.336 6.676 2.003C77.637 11.215 64.286 0 51.47 0 39.452 0 28.37 8.679 23.965 21.496c-6.142 17.09-2.136 33.513 5.34 46.464-.667.935-1.068 2.404-.934 3.872z" fill="#764ABC"/></svg>