<svg viewBox="0 0 117 87" fill="none" xmlns="http://www.w3.org/2000/svg"><g clip-path="url(#a)"><path d="M100.673 50.077c-4.07.02-7.608.992-10.57 2.43-1.087-2.135-2.173-4.036-2.365-5.431-.213-1.627-.469-2.62-.213-4.564.255-1.944 1.406-4.712 1.385-4.923-.021-.211-.256-1.204-2.6-1.225-2.344-.022-4.369.443-4.603 1.056-.235.613-.682 2.007-.98 3.444-.405 2.113-4.688 9.656-7.139 13.607-.789-1.542-1.47-2.894-1.62-3.972-.213-1.627-.469-2.62-.213-4.564s1.407-4.712 1.385-4.923c-.021-.211-.256-1.205-2.6-1.225-2.344-.022-4.369.443-4.603 1.056-.234.613-.49 2.05-.98 3.444-.49 1.395-6.18 13.988-7.672 17.242a96.837 96.837 0 0 1-1.896 3.909s-.022.063-.086.169c-.208.404-.42.805-.639 1.204v.02c-.32.572-.66 1.1-.831 1.1-.128 0-.362-1.522.043-3.592.852-4.374 2.876-11.178 2.855-11.41 0-.127.384-1.31-1.32-1.923-1.663-.613-2.26.401-2.41.401-.148 0-.255.36-.255.36s1.854-7.649-3.538-7.649c-3.366 0-8.012 3.655-10.314 6.951a2876.3 2876.3 0 0 0-7.842 4.248c-1.257.697-2.557 1.394-3.772 2.05-.085-.085-.17-.191-.256-.275-6.52-6.91-18.582-11.79-18.07-21.066.191-3.381 1.363-12.256 23.164-23.031 17.943-8.77 32.221-6.34 34.693-.951 3.537 7.69-7.65 21.974-26.19 24.045-7.076.782-10.784-1.923-11.721-2.937-.98-1.057-1.13-1.12-1.492-.909-.597.318-.213 1.268 0 1.817.554 1.437 2.834 3.973 6.691 5.22 3.41 1.098 11.7 1.711 21.737-2.135 11.23-4.31 20.01-16.29 17.432-26.327C70.69.634 53.641-2.726 37.51 2.958 27.92 6.339 17.52 11.663 10.04 18.594 1.154 26.834-.253 33.997.322 36.998 2.39 47.647 17.201 54.578 23.125 59.71c-.299.17-.576.318-.81.445-2.962 1.457-14.257 7.31-17.07 13.5-3.196 7.016.512 12.045 2.963 12.72 7.607 2.093 15.428-1.668 19.626-7.88 4.198-6.213 3.687-14.284 1.748-17.982-.022-.042-.043-.084-.086-.127.768-.443 1.556-.908 2.323-1.352a113.53 113.53 0 0 1 4.284-2.388c-.725 1.966-1.258 4.311-1.513 7.692-.32 3.972 1.32 9.127 3.473 11.156.96.888 2.088.909 2.813.909 2.515 0 3.645-2.071 4.902-4.522 1.534-3 2.92-6.487 2.92-6.487S46.97 74.82 51.66 74.82c1.704 0 3.43-2.198 4.198-3.317v.02s.042-.063.128-.21l.276-.445v-.041c.682-1.184 2.217-3.867 4.497-8.326 2.94-5.747 5.775-12.93 5.775-12.93s.256 1.753 1.13 4.669c.511 1.712 1.576 3.592 2.429 5.409-.682.951-1.108 1.479-1.108 1.479l.021.021c-.554.718-1.15 1.5-1.811 2.261-2.323 2.747-5.093 5.896-5.477 6.804-.448 1.077-.341 1.86.512 2.493.617.465 1.725.528 2.855.465 2.089-.148 3.559-.655 4.283-.972 1.13-.401 2.451-1.014 3.687-1.923 2.28-1.67 3.665-4.057 3.537-7.205-.064-1.732-.639-3.465-1.342-5.092.213-.296.405-.592.618-.887 3.601-5.22 6.393-10.946 6.393-10.946s.256 1.754 1.13 4.67c.426 1.48 1.3 3.085 2.066 4.648-3.388 2.726-5.476 5.895-6.222 7.966-1.342 3.846-.299 5.578 1.683 5.98.895.19 2.174-.233 3.112-.634 1.193-.38 2.6-1.035 3.942-2.008 2.28-1.668 4.475-3.993 4.348-7.14-.064-1.438-.448-2.854-.98-4.227 2.876-1.183 6.584-1.838 11.315-1.289 10.144 1.183 12.147 7.459 11.763 10.1-.383 2.641-2.514 4.078-3.217 4.522-.704.444-.938.591-.874.908.085.465.426.444 1.023.36.831-.148 5.328-2.135 5.519-6.994.32-6.212-5.647-12.995-16.196-12.931zM22.421 76.235c-3.367 3.634-8.055 5.007-10.08 3.845-2.173-1.247-1.32-6.614 2.814-10.459 2.514-2.345 5.753-4.522 7.906-5.853.49-.296 1.215-.718 2.088-1.246.15-.085.235-.127.235-.127l.511-.317c1.513 5.493.064 10.332-3.474 14.157zM46.93 59.71c-1.173 2.832-3.623 10.08-5.115 9.678-1.279-.338-2.067-5.832-.256-11.262.916-2.726 2.856-5.98 3.985-7.247 1.833-2.03 3.858-2.706 4.347-1.88.619 1.077-2.237 8.937-2.962 10.711zm20.223 9.593c-.49.254-.959.423-1.172.296-.15-.085.213-.423.213-.423s2.536-2.704 3.538-3.93c.575-.718 1.257-1.563 1.982-2.514v.275c0 3.232-3.155 5.409-4.561 6.296zm15.6-3.528c-.363-.254-.3-1.1.915-3.74.47-1.036 1.577-2.768 3.474-4.438.213.677.362 1.332.341 1.944-.021 4.078-2.962 5.6-4.73 6.234z" fill="#CD6799"/></g><defs><clipPath id="a"><path fill="#fff" d="M0 0h117v87H0z"/></clipPath></defs></svg>