<svg viewBox="0 0 120 120" fill="none" xmlns="http://www.w3.org/2000/svg"><path d="M7 60.5V113h105V8H7v52.5zm84.613-4.2a13.07 13.07 0 0 1 6.569 3.78 17.274 17.274 0 0 1 2.52 3.36c0 .134-4.536 3.2-7.3 4.914-.1.067-.504-.37-.949-1.033a5.956 5.956 0 0 0-4.93-2.965c-3.184-.219-5.234 1.453-5.217 4.2-.026.684.13 1.362.454 1.965.697 1.453 1.999 2.319 6.081 4.083 7.518 3.234 10.735 5.367 12.735 8.4 2.234 3.36 2.73 8.786 1.218 12.801-1.68 4.368-5.796 7.333-11.618 8.316a32.133 32.133 0 0 1-7.996-.084 19.32 19.32 0 0 1-10.685-5.569c-.966-1.067-2.848-3.847-2.73-4.049.306-.227.63-.432.966-.613l3.889-2.15 3.016-1.748.63.933a14.095 14.095 0 0 0 3.981 3.813c3.36 1.764 7.947 1.52 10.215-.52a4.561 4.561 0 0 0 .58-5.813c-.84-1.168-2.52-2.15-7.216-4.2-5.418-2.335-7.754-3.78-9.887-6.082a13.842 13.842 0 0 1-2.881-5.25 20.998 20.998 0 0 1-.185-6.72c1.117-5.233 5.04-8.887 10.769-9.97a26.595 26.595 0 0 1 7.971.218V56.3zm-24.645 4.402v4.3H53.334v38.834h-9.668V64.994H29.999v-4.2a41.317 41.317 0 0 1 .101-4.343c.067-.075 8.4-.075 18.48-.075h18.337l.05 4.326z" fill="#007ACC"/></svg>