<svg viewBox="0 0 112 112" fill="none" xmlns="http://www.w3.org/2000/svg"><path d="m101.535 17.605-20.18-9.716a6.097 6.097 0 0 0-6.962 1.183L8.33 69.3a4.081 4.081 0 0 0-.01 6.034l5.393 4.9a4.078 4.078 0 0 0 5.212.231l79.572-60.34A4.053 4.053 0 0 1 105 23.352v-.235a6.117 6.117 0 0 0-3.465-5.512z" fill="#0065A9"/><path d="m101.535 94.395-20.18 9.72a6.114 6.114 0 0 1-6.962-1.183L8.33 42.7a4.081 4.081 0 0 1-.01-6.034l5.393-4.9a4.077 4.077 0 0 1 5.222-.231l79.562 60.34A4.053 4.053 0 0 0 105 88.648v.252a6.124 6.124 0 0 1-3.465 5.495z" fill="#007ACC"/><path d="M81.354 104.115a6.114 6.114 0 0 1-6.962-1.183 3.586 3.586 0 0 0 3.897.759 3.585 3.585 0 0 0 2.21-3.297V11.606a3.584 3.584 0 0 0-6.12-2.534 6.104 6.104 0 0 1 6.96-1.186l20.178 9.701A6.112 6.112 0 0 1 105 23.1v65.8a6.118 6.118 0 0 1-3.469 5.516l-20.177 9.699z" fill="#1F9CF0"/></svg>