<svg width="30" height="30" fill="none" xmlns="http://www.w3.org/2000/svg"><path d="M15 .6C7.047.6.6 7.047.6 15S7.047 29.4 15 29.4 29.4 22.953 29.4 15 22.953.6 15 .6zm-3.525 20.368H8.56v-9.383h2.916v9.383zM10 10.432c-.92 0-1.516-.652-1.516-1.459 0-.824.613-1.457 1.554-1.457.94 0 1.516.633 1.534 1.457 0 .807-.594 1.46-1.572 1.46zm12.126 10.536H19.21v-5.2c0-1.21-.423-2.033-1.477-2.033-.806 0-1.284.557-1.496 1.093-.078.19-.097.46-.097.729v5.41H13.22v-6.39c0-1.171-.037-2.151-.076-2.994h2.533l.134 1.303h.058c.384-.611 1.325-1.514 2.898-1.514 1.919 0 3.357 1.285 3.357 4.048v5.548z" fill="#A7A7A7"/></svg>