<svg viewBox="0 0 110 75" fill="none" xmlns="http://www.w3.org/2000/svg"><g clip-path="url(#a)"><path d="m26.927 45.515-4.81 18.239-5.382-.015-2.878-12.02-3.05 12.003-5.381-.015L.849 45.442l4.758.014 2.588 13.293 3.288-13.277 4.888.014 3.082 13.295 2.69-13.279 4.784.013zm4.459 2.249c-.78-.002-1.42-.23-1.922-.681a2.292 2.292 0 0 1-.723-1.718c.002-.694.246-1.265.733-1.715.503-.466 1.145-.698 1.925-.696.763.002 1.386.238 1.87.707.502.452.752 1.025.75 1.718a2.255 2.255 0 0 1-.76 1.714c-.486.45-1.11.673-1.873.67zm2.206 1.514-.04 14.508-4.447-.012.04-14.508 4.447.012zm12.062-.122c1.699.005 3.05.563 4.051 1.675 1.02 1.095 1.527 2.604 1.522 4.528l-.024 8.476-4.42-.012.022-7.878c.003-.97-.246-1.725-.748-2.264-.5-.539-1.176-.81-2.025-.812-.85-.002-1.526.265-2.03.8-.505.537-.758 1.29-.76 2.26l-.023 7.878-4.446-.012.04-14.508 4.447.013-.006 1.924c.453-.64 1.06-1.141 1.825-1.503.763-.38 1.622-.568 2.575-.565zm17.52.049c1.698.005 3.049.563 4.051 1.675 1.02 1.095 1.527 2.604 1.521 4.528l-.023 8.477-4.42-.013.022-7.878c.002-.97-.247-1.725-.748-2.264-.501-.539-1.176-.81-2.026-.812-.85-.002-1.526.265-2.03.8-.504.537-.758 1.29-.76 2.26l-.022 7.878-4.446-.012.04-14.508 4.446.013-.005 1.924c.452-.64 1.06-1.141 1.824-1.503.764-.38 1.622-.568 2.576-.565zm10.919-1.322c-.78-.002-1.42-.229-1.922-.68a2.293 2.293 0 0 1-.723-1.719c.002-.693.246-1.265.732-1.714.504-.467 1.146-.699 1.926-.697.763.003 1.386.238 1.87.708.502.452.752 1.025.75 1.718a2.255 2.255 0 0 1-.76 1.714c-.486.449-1.11.673-1.873.67zm2.206 1.515-.041 14.508-4.446-.013.04-14.508 4.447.013zm2.317 7.26c.005-1.508.312-2.824.921-3.95.627-1.124 1.488-1.988 2.582-2.592 1.11-.604 2.377-.903 3.798-.9 1.82.006 3.335.487 4.546 1.443 1.228.957 2.03 2.303 2.407 4.037l-4.732-.013c-.396-1.11-1.165-1.667-2.31-1.67-.814-.003-1.465.316-1.952.956-.487.623-.732 1.523-.736 2.702-.003 1.178.237 2.09.72 2.732.484.625 1.133.94 1.948.941 1.144.003 1.917-.549 2.319-1.657l4.732.013c-.386 1.698-1.196 3.03-2.43 3.997-1.233.967-2.75 1.449-4.554 1.444-1.42-.004-2.685-.311-3.793-.921-1.09-.61-1.946-1.479-2.567-2.607-.603-1.129-.903-2.447-.899-3.955zm25.472 7.325-4.403-6.096-.017 6.084-4.446-.012.054-19.24 4.446.012-.03 10.634 4.411-5.89 5.486.016-6.053 7.263 6.064 7.245-5.512-.016z" fill="url(#b)"/><path d="M38.921 27.646 33.643 21.9l5.278-5.746h5.59L39.207 21.9l5.304 5.746h-5.59zM63.51 6.3l-6.968 29.562h-4.29L59.22 6.3h4.29zm1.901 9.854H71l5.278 5.746L71 27.646h-5.59l5.305-5.746-5.305-5.746z" fill="url(#c)"/></g><defs><linearGradient id="b" x1="-5.337" y1="54.42" x2="109.95" y2="54.742" gradientUnits="userSpaceOnUse"><stop offset=".026" stop-color="#FF4E50"/><stop offset="1" stop-color="#F9D423"/></linearGradient><linearGradient id="c" x1="29.797" y1="22" x2="78" y2="22" gradientUnits="userSpaceOnUse"><stop offset=".026" stop-color="#FF4E50"/><stop offset="1" stop-color="#F9D423"/></linearGradient><clipPath id="a"><path fill="#fff" d="M0 0h110v75H0z"/></clipPath></defs></svg>