<svg width="30" height="30" fill="none" xmlns="http://www.w3.org/2000/svg"><g clip-path="url(#a)"><path d="M14.93 0a15 15 0 1 0 .14 30 15 15 0 0 0-.14-30zm6.203 9.03c.125-.002.4.029.58.175.12.104.197.249.214.406.02.117.046.383.026.59-.226 2.373-1.203 8.128-1.7 10.784-.21 1.125-.624 1.501-1.026 1.538-.87.08-1.53-.575-2.375-1.128-1.32-.866-2.066-1.405-3.347-2.25-1.481-.975-.521-1.512.322-2.387.222-.23 4.06-3.722 4.134-4.038.009-.04.018-.188-.07-.265-.087-.078-.217-.051-.311-.03-.132.03-2.241 1.425-6.326 4.181-.6.413-1.141.613-1.628.6-.535-.01-1.565-.301-2.331-.55-.94-.306-1.686-.467-1.621-.986.033-.27.406-.546 1.116-.829 4.372-1.905 7.288-3.161 8.747-3.767C19.702 9.34 20.57 9.04 21.132 9.03z" fill="#A7A7A7"/></g><defs><clipPath id="a"><path fill="#fff" d="M0 0h30v30H0z"/></clipPath></defs></svg>